HIERARCHY
ROOT Hips
{
	OFFSET 0.000000 121.760803 0.000000
	CHANNELS 6 Xposition Yposition Zposition Xrotation Yrotation Zrotation 
	JOINT Spine
	{
		OFFSET 0.072000 7.257294 -0.789700
		CHANNELS 3 Xrotation Yrotation Zrotation
		JOINT Spine1
		{
			OFFSET 0.000000 12.508769 -0.658067
			CHANNELS 3 Xrotation Yrotation Zrotation
			JOINT Spine1_split
			{
				OFFSET 0.000000 12.508769 -0.658067
				CHANNELS 3 Xrotation Yrotation Zrotation
				JOINT Spine2
				{
					OFFSET 0.000000 12.508769 -0.658067
					CHANNELS 3 Xrotation Yrotation Zrotation
					JOINT Neck
					{
						OFFSET 0.000000 14.033295 7.520400
						CHANNELS 3 Xrotation Yrotation Zrotation
						JOINT Head
						{
							OFFSET 0.000000 8.198502 5.703100
							CHANNELS 3 Xrotation Yrotation Zrotation
							JOINT HeadTop_End
							{
								OFFSET 0.000000 17.760803 13.332701
								CHANNELS 3 Xrotation Yrotation Zrotation
								End Site
								{
									OFFSET 0.000000 0.000000 0.000000
								}
							}
						}
					}
					JOINT LeftShoulder
					{
						OFFSET 6.292450 5.785301 -0.669000
						CHANNELS 3 Xrotation Yrotation Zrotation
						JOINT LeftShoulder_split
						{
							OFFSET 6.292450 5.785301 -0.669000
							CHANNELS 3 Xrotation Yrotation Zrotation
							JOINT LeftArm
							{
								OFFSET 13.907140 -6.093903 1.965100
								CHANNELS 3 Xrotation Yrotation Zrotation
								JOINT LeftForeArm
								{
									OFFSET 34.140198 0.000000 0.000000
									CHANNELS 3 Xrotation Yrotation Zrotation
									JOINT LeftHand
									{
										OFFSET 40.960209 0.000000 0.000000
										CHANNELS 3 Xrotation Yrotation Zrotation
										JOINT LeftHandThumb1
										{
											OFFSET 10.006996 -7.170425 9.573125
											CHANNELS 3 Xrotation Yrotation Zrotation
											JOINT LeftHandThumb2
											{
												OFFSET 1.835007 -1.059448 1.059443
												CHANNELS 3 Xrotation Yrotation Zrotation
												JOINT LeftHandThumb3
												{
													OFFSET 2.112267 -1.219513 1.219518
													CHANNELS 3 Xrotation Yrotation Zrotation
													JOINT LeftHandThumb4
													{
														OFFSET 4.843811 -2.796570 2.796576
														CHANNELS 3 Xrotation Yrotation Zrotation
														End Site
														{
															OFFSET 0.000000 0.000000 0.000000
														}
													}
												}
											}
										}
										JOINT LeftHandIndex1
										{
											OFFSET 18.389847 -0.922348 4.596882
											CHANNELS 3 Xrotation Yrotation Zrotation
											JOINT LeftHandIndex2
											{
												OFFSET 4.711273 0.000000 0.000000
												CHANNELS 3 Xrotation Yrotation Zrotation
												JOINT LeftHandIndex3
												{
													OFFSET 2.886131 0.000000 0.000000
													CHANNELS 3 Xrotation Yrotation Zrotation
													JOINT LeftHandIndex4
													{
														OFFSET 6.145912 0.000000 0.000000
														CHANNELS 3 Xrotation Yrotation Zrotation
														End Site
														{
															OFFSET 0.000000 0.000000 0.000000
														}
													}
												}
											}
										}
										JOINT LeftHandMiddle1
										{
											OFFSET 18.013008 0.000000 0.000000
											CHANNELS 3 Xrotation Yrotation Zrotation
											JOINT LeftHandMiddle2
											{
												OFFSET 4.946693 0.000000 0.000000
												CHANNELS 3 Xrotation Yrotation Zrotation
												JOINT LeftHandMiddle3
												{
													OFFSET 3.342232 0.000000 0.000000
													CHANNELS 3 Xrotation Yrotation Zrotation
													JOINT LeftHandMiddle4
													{
														OFFSET 4.461754 0.000000 0.000000
														CHANNELS 3 Xrotation Yrotation Zrotation
														End Site
														{
															OFFSET 0.000000 0.000000 0.000000
														}
													}
												}
											}
										}
										JOINT LeftHandRing1
										{
											OFFSET 15.849892 -0.102921 -4.126150
											CHANNELS 3 Xrotation Yrotation Zrotation
											JOINT LeftHandRing2
											{
												OFFSET 3.527054 0.000000 0.000000
												CHANNELS 3 Xrotation Yrotation Zrotation
												JOINT LeftHandRing3
												{
													OFFSET 2.961098 0.000000 0.000000
													CHANNELS 3 Xrotation Yrotation Zrotation
													JOINT LeftHandRing4
													{
														OFFSET 4.927200 0.000000 0.000000
														CHANNELS 3 Xrotation Yrotation Zrotation
														End Site
														{
															OFFSET 0.000000 0.000000 0.000000
														}
													}
												}
											}
										}
										JOINT LeftHandPinky1
										{
											OFFSET 12.791824 -0.832031 -6.799156
											CHANNELS 3 Xrotation Yrotation Zrotation
											JOINT LeftHandPinky2
											{
												OFFSET 3.327133 0.000000 0.000000
												CHANNELS 3 Xrotation Yrotation Zrotation
												JOINT LeftHandPinky3
												{
													OFFSET 3.014900 0.000000 0.000000
													CHANNELS 3 Xrotation Yrotation Zrotation
													JOINT LeftHandPinky4
													{
														OFFSET 5.847786 0.000000 0.000000
														CHANNELS 3 Xrotation Yrotation Zrotation
														End Site
														{
															OFFSET 0.000000 0.000000 0.000000
														}
													}
												}
											}
										}
									}
								}
							}
						}
					}
					JOINT RightShoulder
					{
						OFFSET -6.292450 5.785301 -0.669000
						CHANNELS 3 Xrotation Yrotation Zrotation
						JOINT RightShoulder_split
						{
							OFFSET -6.292450 5.785301 -0.669000
							CHANNELS 3 Xrotation Yrotation Zrotation
							JOINT RightArm
							{
								OFFSET -13.907140 -6.093903 1.965100
								CHANNELS 3 Xrotation Yrotation Zrotation
								JOINT RightForeArm
								{
									OFFSET -34.140198 0.000000 0.000000
									CHANNELS 3 Xrotation Yrotation Zrotation
									JOINT RightHand
									{
										OFFSET -40.960209 0.000000 0.000000
										CHANNELS 3 Xrotation Yrotation Zrotation
										JOINT RightHandThumb1
										{
											OFFSET -10.007050 -7.170456 9.573117
											CHANNELS 3 Xrotation Yrotation Zrotation
											JOINT RightHandThumb2
											{
												OFFSET -1.835007 -1.059448 1.059443
												CHANNELS 3 Xrotation Yrotation Zrotation
												JOINT RightHandThumb3
												{
													OFFSET -2.112267 -1.219513 1.219518
													CHANNELS 3 Xrotation Yrotation Zrotation
													JOINT RightHandThumb4
													{
														OFFSET -4.843834 -2.796585 2.796590
														CHANNELS 3 Xrotation Yrotation Zrotation
														End Site
														{
															OFFSET 0.000000 0.000000 0.000000
														}
													}
												}
											}
										}
										JOINT RightHandIndex1
										{
											OFFSET -18.389870 -0.922424 4.596786
											CHANNELS 3 Xrotation Yrotation Zrotation
											JOINT RightHandIndex2
											{
												OFFSET -4.711273 0.000000 0.000000
												CHANNELS 3 Xrotation Yrotation Zrotation
												JOINT RightHandIndex3
												{
													OFFSET -2.886131 0.000000 0.000000
													CHANNELS 3 Xrotation Yrotation Zrotation
													JOINT RightHandIndex4
													{
														OFFSET -6.145920 0.000000 0.000000
														CHANNELS 3 Xrotation Yrotation Zrotation
														End Site
														{
															OFFSET 0.000000 0.000000 0.000000
														}
													}
												}
											}
										}
										JOINT RightHandMiddle1
										{
											OFFSET -18.013008 0.000000 0.000000
											CHANNELS 3 Xrotation Yrotation Zrotation
											JOINT RightHandMiddle2
											{
												OFFSET -4.946693 0.000000 0.000000
												CHANNELS 3 Xrotation Yrotation Zrotation
												JOINT RightHandMiddle3
												{
													OFFSET -3.342232 0.000000 0.000000
													CHANNELS 3 Xrotation Yrotation Zrotation
													JOINT RightHandMiddle4
													{
														OFFSET -4.461754 0.000000 0.000000
														CHANNELS 3 Xrotation Yrotation Zrotation
														End Site
														{
															OFFSET 0.000000 0.000000 0.000000
														}
													}
												}
											}
										}
										JOINT RightHandRing1
										{
											OFFSET -15.849876 -0.102936 -4.126237
											CHANNELS 3 Xrotation Yrotation Zrotation
											JOINT RightHandRing2
											{
												OFFSET -3.527054 0.000000 0.000000
												CHANNELS 3 Xrotation Yrotation Zrotation
												JOINT RightHandRing3
												{
													OFFSET -2.961098 0.000000 0.000000
													CHANNELS 3 Xrotation Yrotation Zrotation
													JOINT RightHandRing4
													{
														OFFSET -4.927200 0.000000 0.000000
														CHANNELS 3 Xrotation Yrotation Zrotation
														End Site
														{
															OFFSET 0.000000 0.000000 0.000000
														}
													}
												}
											}
										}
										JOINT RightHandPinky1
										{
											OFFSET -12.791786 -0.832077 -6.799222
											CHANNELS 3 Xrotation Yrotation Zrotation
											JOINT RightHandPinky2
											{
												OFFSET -3.327133 0.000000 0.000000
												CHANNELS 3 Xrotation Yrotation Zrotation
												JOINT RightHandPinky3
												{
													OFFSET -3.014900 0.000000 0.000000
													CHANNELS 3 Xrotation Yrotation Zrotation
													JOINT RightHandPinky4
													{
														OFFSET -5.847786 0.000000 0.000000
														CHANNELS 3 Xrotation Yrotation Zrotation
														End Site
														{
															OFFSET 0.000000 0.000000 0.000000
														}
													}
												}
											}
										}
									}
								}
							}
						}
					}
				}
			}
		}
	}
	JOINT LeftUpLeg
	{
		OFFSET 13.026900 -6.336304 -1.092800
		CHANNELS 3 Xrotation Yrotation Zrotation
		JOINT LeftLeg
		{
			OFFSET 0.524474 -46.096886 9.782700
			CHANNELS 3 Xrotation Yrotation Zrotation
			JOINT LeftFoot
			{
				OFFSET -0.524474 -53.427422 -12.948200
				CHANNELS 3 Xrotation Yrotation Zrotation
				JOINT LeftToeBase
				{
					OFFSET 0.192200 -14.009700 16.364100
					CHANNELS 3 Xrotation Yrotation Zrotation
					JOINT LeftToe_End
					{
						OFFSET -1.784700 -0.561700 9.474800
						CHANNELS 3 Xrotation Yrotation Zrotation
						End Site
						{
							OFFSET 0.000000 0.000000 0.000000
						}
					}
				}
			}
		}
	}
	JOINT RightUpLeg
	{
		OFFSET -12.883000 -6.336304 -1.092800
		CHANNELS 3 Xrotation Yrotation Zrotation
		JOINT RightLeg
		{
			OFFSET -0.524587 -46.096825 9.782800
			CHANNELS 3 Xrotation Yrotation Zrotation
			JOINT RightFoot
			{
				OFFSET 0.524587 -53.427383 -12.948300
				CHANNELS 3 Xrotation Yrotation Zrotation
				JOINT RightToeBase
				{
					OFFSET -0.192200 -14.009700 16.364100
					CHANNELS 3 Xrotation Yrotation Zrotation
					JOINT RightToe_End
					{
						OFFSET 1.784700 -0.561700 9.474800
						CHANNELS 3 Xrotation Yrotation Zrotation
						End Site
						{
							OFFSET 0.000000 0.000000 0.000000
						}
					}
				}
			}
		}
	}
}
MOTION
Frames: 4
Frame Time: 0.016667
-0.086528 94.466362 -0.178571 -5.399412 -46.427425 -0.217661 9.459024 7.380310 -1.672755 2.187715 0.989897 -0.915630 0.000000 0.000000 0.000000 2.202830 0.982772 -0.894153 0.084652 13.220562 4.538680 8.920922 20.138142 -4.130236 -0.000001 0.000000 -0.000000 1.117178 3.546347 -8.633310 0.000000 0.000000 0.000000 -53.487006 4.935516 -51.502990 0.000140 -106.358067 0.000159 1.988608 -7.706152 -15.869260 -6.141215 -11.690805 -6.761689 9.914139 42.595519 3.409850 -0.422813 8.108089 27.509097 0.000004 -0.000002 0.000003 0.255311 3.378214 -45.814331 5.654097 5.847750 -88.067441 2.162139 4.544812 -50.866359 0.000000 0.000000 0.000001 -0.461477 3.841595 -39.722679 6.450752 5.820359 -95.892871 2.182896 4.561568 -51.127729 -0.000001 -0.000000 0.000001 0.469717 4.966825 -39.799437 8.181036 5.368618 -113.502984 3.200492 5.218128 -63.022975 0.000001 -0.000000 0.000000 -3.762437 9.063702 -45.253818 5.342539 5.828997 -85.005304 8.716839 5.103324 -119.369194 -0.000002 -0.000000 -0.000001 3.036128 13.027199 -5.371408 0.000000 0.000000 0.000000 -48.713722 27.172827 83.457084 0.000074 105.988287 -0.000066 -8.345376 17.548103 8.775691 -7.341086 13.749661 7.412326 9.855746 -44.489103 -3.903263 -0.115767 -14.513081 -28.973864 -0.000000 -0.000001 0.000001 -0.124379 -2.384791 45.108864 4.500597 -4.654532 88.071171 1.723215 -3.618374 50.920105 -0.000000 -0.000000 0.000001 -0.761620 -2.932909 39.031048 5.133887 -4.632761 95.881649 1.739749 -3.631696 51.181363 0.000000 -0.000001 0.000000 0.154758 -4.068825 39.122675 6.509731 -4.273601 113.462850 2.549585 -4.153926 63.067317 -0.000001 -0.000002 0.000000 -4.198872 -8.025514 44.637772 4.252915 -4.639627 85.014818 6.935973 -4.062633 119.322285 -0.000001 -0.000000 -0.000000 -35.094868 6.482898 17.943569 57.627098 -6.303604 4.336281 -19.842635 -8.003830 -15.604814 -1.594025 0.000002 -0.000000 -0.000000 -0.000000 -0.000000 -25.791076 -8.564249 -30.187951 56.910868 -8.362137 -7.381929 -21.920162 -6.263944 23.241059 -0.013009 0.000001 0.000006 -0.000000 0.000000 -0.000000 
0.047481 93.949287 0.450332 -5.081214 -46.698946 -0.053519 9.675262 7.516534 -1.929997 2.062173 1.010595 -0.893726 0.000000 0.000000 0.000000 2.076817 1.004105 -0.874001 0.115999 13.237021 4.673040 8.696453 20.175026 -3.730637 -0.000000 0.000000 0.000000 1.112659 3.581120 -8.635981 0.000000 0.000000 0.000000 -53.210664 4.972776 -51.357237 -0.000006 -106.367745 -0.000012 2.411222 -7.507508 -16.196281 -6.141215 -11.690801 -6.761687 9.914139 42.595525 3.409848 -0.422817 8.108089 27.509097 -0.000001 -0.000000 0.000002 0.255311 3.378217 -45.814334 5.654096 5.847749 -88.067441 2.162140 4.544813 -50.866359 -0.000001 0.000001 0.000001 -0.461478 3.841599 -39.722679 6.450749 5.820361 -95.892871 2.182901 4.561568 -51.127729 -0.000001 -0.000001 -0.000002 0.469717 4.966829 -39.799437 8.181034 5.368615 -113.502984 3.200493 5.218126 -63.022975 -0.000001 -0.000000 0.000001 -3.762434 9.063705 -45.253821 5.342539 5.828997 -85.005297 8.716839 5.103325 -119.369194 0.000000 -0.000000 -0.000002 3.105121 13.142779 -5.328001 0.000000 0.000000 0.000000 -48.727434 27.290291 83.461524 0.000132 105.913715 -0.000099 -8.160912 17.583444 8.793051 -7.341084 13.749664 7.412321 9.855751 -44.489103 -3.903264 -0.115767 -14.513085 -28.973864 0.000002 0.000001 0.000000 -0.124377 -2.384790 45.108864 4.500595 -4.654535 88.071171 1.723216 -3.618375 50.920105 -0.000000 -0.000001 0.000003 -0.761618 -2.932905 39.031048 5.133885 -4.632758 95.881649 1.739749 -3.631695 51.181360 0.000001 0.000001 -0.000000 0.154759 -4.068822 39.122675 6.509728 -4.273604 113.462850 2.549586 -4.153927 63.067317 -0.000001 -0.000002 0.000002 -4.198870 -8.025512 44.637776 4.252912 -4.639626 85.014811 6.935973 -4.062632 119.322285 -0.000001 -0.000000 0.000000 -35.616035 6.334059 17.797496 58.870493 -6.110605 4.262567 -20.481420 -7.530396 -15.306498 -1.636952 0.000010 0.000000 0.000000 -0.000000 -0.000000 -26.280101 -8.357054 -30.642964 57.409584 -7.587960 -7.341390 -22.057717 -6.619437 23.315544 -0.024343 -0.000034 -0.000000 0.000000 -0.000000 0.000000 
0.199018 93.322205 1.131979 -4.838419 -47.065874 0.070796 9.954894 7.651005 -2.117571 1.916819 1.031760 -0.894298 0.000000 0.000000 0.000000 1.931407 1.025008 -0.876845 0.148175 13.275049 4.803505 8.434756 20.259437 -3.299773 0.000001 0.000000 -0.000001 1.110768 3.630398 -8.655378 0.000000 0.000000 0.000000 -52.841776 5.112491 -51.141690 -0.000065 -106.568040 -0.000067 2.622639 -7.353733 -16.403693 -6.141217 -11.690805 -6.761695 9.914137 42.595525 3.409858 -0.422812 8.108089 27.509096 -0.000001 0.000001 -0.000000 0.255311 3.378215 -45.814337 5.654095 5.847751 -88.067435 2.162141 4.544813 -50.866359 -0.000002 0.000002 -0.000005 -0.461479 3.841597 -39.722679 6.450748 5.820364 -95.892871 2.182902 4.561572 -51.127729 -0.000001 0.000001 0.000002 0.469716 4.966827 -39.799437 8.181033 5.368615 -113.502984 3.200495 5.218125 -63.022975 -0.000001 -0.000002 0.000002 -3.762437 9.063702 -45.253825 5.342537 5.828998 -85.005304 8.716839 5.103323 -119.369194 -0.000001 0.000000 -0.000001 3.169172 13.274904 -5.296747 0.000000 0.000000 0.000000 -48.735756 27.444501 83.446170 -0.000097 105.845727 0.000106 -7.984242 17.693504 8.782196 -7.341085 13.749662 7.412322 9.855750 -44.489107 -3.903263 -0.115767 -14.513083 -28.973864 0.000000 -0.000001 -0.000000 -0.124377 -2.384790 45.108868 4.500601 -4.654533 88.071171 1.723216 -3.618375 50.920109 -0.000000 0.000002 -0.000001 -0.761618 -2.932907 39.031055 5.133884 -4.632761 95.881649 1.739748 -3.631701 51.181360 0.000001 0.000000 -0.000003 0.154758 -4.068827 39.122675 6.509732 -4.273600 113.462850 2.549586 -4.153924 63.067324 -0.000001 0.000000 0.000002 -4.198872 -8.025514 44.637776 4.252912 -4.639624 85.014818 6.935974 -4.062631 119.322285 0.000001 0.000000 0.000000 -36.258380 6.130973 17.762095 60.396153 -5.936160 4.162871 -21.003363 -7.149288 -15.320874 -1.953562 -0.000007 0.000001 0.000000 0.000003 0.000000 -26.875478 -8.146490 -31.167642 58.041261 -6.643074 -7.395545 -22.247205 -6.997309 23.379538 -0.009094 -0.000013 -0.000001 0.000000 -0.000001 0.000000 
0.378164 92.562027 1.891057 -4.721994 -47.506691 0.126934 10.302382 7.784651 -2.222935 1.751585 1.053338 -0.915971 0.000000 0.000000 0.000000 1.766520 1.045415 -0.901337 0.181825 13.330686 4.930966 8.143636 20.381267 -2.845098 0.000001 0.000000 0.000001 1.111785 3.693833 -8.692152 0.000000 0.000000 0.000000 -52.361699 5.340848 -50.878308 0.000126 -106.890500 0.000140 2.654532 -7.266174 -16.480637 -6.141217 -11.690806 -6.761683 9.914141 42.595525 3.409857 -0.422816 8.108089 27.509097 -0.000001 0.000001 0.000000 0.255309 3.378215 -45.814327 5.654099 5.847747 -88.067441 2.162139 4.544813 -50.866359 0.000001 0.000000 0.000001 -0.461481 3.841597 -39.722673 6.450749 5.820365 -95.892871 2.182901 4.561570 -51.127733 -0.000000 0.000004 0.000000 0.469715 4.966826 -39.799427 8.181033 5.368613 -113.502984 3.200493 5.218126 -63.022975 0.000000 -0.000001 0.000000 -3.762438 9.063701 -45.253818 5.342538 5.829001 -85.005297 8.716835 5.103328 -119.369194 -0.000001 0.000000 0.000001 3.224298 13.415403 -5.279438 0.000000 0.000000 0.000000 -48.718162 27.637152 83.417592 -0.000046 105.772241 0.000042 -7.808817 17.876207 8.743102 -7.341088 13.749659 7.412324 9.855746 -44.489103 -3.903262 -0.115770 -14.513090 -28.973864 0.000000 -0.000001 0.000000 -0.124379 -2.384792 45.108868 4.500598 -4.654533 88.071171 1.723219 -3.618379 50.920109 -0.000000 0.000000 0.000005 -0.761620 -2.932907 39.031048 5.133884 -4.632759 95.881649 1.739749 -3.631697 51.181360 -0.000001 -0.000000 -0.000003 0.154758 -4.068826 39.122675 6.509730 -4.273602 113.462850 2.549587 -4.153928 63.067324 -0.000002 0.000001 0.000001 -4.198874 -8.025519 44.637776 4.252915 -4.639627 85.014811 6.935976 -4.062632 119.322285 -0.000000 -0.000000 -0.000001 -37.080393 5.808261 17.843924 62.335141 -5.880585 4.040883 -21.272510 -6.824116 -15.884469 -2.555653 -0.000003 0.017851 0.000000 0.000001 0.000000 -27.516399 -7.897917 -31.779832 58.815790 -5.543332 -7.548824 -22.494890 -7.409218 23.473315 0.012845 0.000001 0.017073 0.000000 0.000001 -0.000000 
